# xmcd
# 
# Track frame offsets:
#     150
#     16177
#     26420
#     36980
#     45705
#     55002
#     67290
#     77652
#     88425
#     97505
#     108975
#     118695
#     129225
#     140627
#     152745
#     166162
#     181607
#     194007
#     209340
#     224985
# 
# Disc length: 3218
# 
# Revision: 6
# Processed by: cddbd v1.5.2PL0 Copyright (c) Steve Scherf et al.
# Submitted via: fre:ac v1.0.31
# 
DISCID=1a0c9014
DTITLE=Treasured Tunes - Treasured Tunes - Volume 4
DYEAR=0
DGENRE=Rock/Pop
TTITLE0=Domenico Modugno - Nel Blu Dipinto Di Blu
TTITLE1=Sammy Turner - Lavender Blue
TTITLE2=Sarah Vaughn - Smooth Operator
TTITLE3=Innocents - Honest I Do
TTITLE4=Dee Clark - You're Looking Good
TTITLE5=Belmonts - Tell Me Why
TTITLE6=Stereos - I Really Love You
TTITLE7=Gene McDaniels - Spanish Lace
TTITLE8=Dickey Lee - I Saw Linda Yesterday
TTITLE9=Helen Shapiro - I Don't Care
TTITLE10=Pixies Three - 442 Glenwood Avenue
TTITLE11=Ray Charles Singers - Love Me With All Your Heart
TTITLE12=Bachelors - Diane
TTITLE13=Brian Hyland - The Joker Went Wild
TTITLE14=Los Bravos - Black Is Black
TTITLE15=Johnny Nash - Cupid
TTITLE16=Mike Curb Congregation - Burning Bridges
TTITLE17=Wayne Newton - Daddy Don't You Walk So Fast
TTITLE18=Kenny Nolan - I Like Dreamin'
TTITLE19=Debby Boone - You Light Up My Life
EXTD=
EXTT0=
EXTT1=
EXTT2=
EXTT3=
EXTT4=
EXTT5=
EXTT6=
EXTT7=
EXTT8=
EXTT9=
EXTT10=
EXTT11=
EXTT12=
EXTT13=
EXTT14=
EXTT15=
EXTT16=
EXTT17=
EXTT18=
EXTT19=
PLAYORDER=
